<?xml version="1.0" encoding="UTF-8" standalone="no"?>
<!-- Created with Inkscape (http://www.inkscape.org/) -->
<svg
   xmlns:dc="http://purl.org/dc/elements/1.1/"
   xmlns:cc="http://web.resource.org/cc/"
   xmlns:rdf="http://www.w3.org/1999/02/22-rdf-syntax-ns#"
   xmlns:svg="http://www.w3.org/2000/svg"
   xmlns="http://www.w3.org/2000/svg"
   xmlns:sodipodi="http://sodipodi.sourceforge.net/DTD/sodipodi-0.dtd"
   xmlns:inkscape="http://www.inkscape.org/namespaces/inkscape"
   width="539.35516"
   height="94.126915"
   id="svg2"
   sodipodi:version="0.32"
   inkscape:version="0.45.1"
   sodipodi:docbase="/home/klopmang/Documents/wiki"
   sodipodi:docname="sech_soliton.svg"
   version="1.0"
   inkscape:output_extension="org.inkscape.output.svg.inkscape">
  <sodipodi:namedview
     id="base"
     pagecolor="#ffffff"
     bordercolor="#666666"
     borderopacity="1.0"
     gridtolerance="10000"
     guidetolerance="10"
     objecttolerance="10"
     inkscape:pageopacity="0.0"
     inkscape:pageshadow="2"
     inkscape:zoom="1.4538721"
     inkscape:cx="372.04724"
     inkscape:cy="68.079119"
     inkscape:document-units="px"
     inkscape:current-layer="layer1"
     showgrid="false"
     inkscape:window-width="1400"
     inkscape:window-height="980"
     inkscape:window-x="0"
     inkscape:window-y="0" />
  <defs
     id="defs4" />
  <metadata
     id="metadata7">
    <rdf:RDF>
      <cc:Work
         rdf:about="">
        <dc:format>image/svg+xml</dc:format>
        <dc:type
           rdf:resource="http://purl.org/dc/dcmitype/StillImage" />
      </cc:Work>
    </rdf:RDF>
  </metadata>
  <g
     inkscape:label="Layer 1"
     id="layer1"
     inkscape:groupmode="layer"
     transform="translate(-89.665493,-390.29872)">
    <path
       title="cos(x)/cosh(x/15)"
       style="fill:#000000;fill-opacity:0;stroke:#0000ff;stroke-width:2.16901231;stroke-linecap:butt;stroke-linejoin:miter;stroke-miterlimit:4;stroke-dasharray:none;stroke-dashoffset:48.99999211;stroke-opacity:1"
       id="path3236"
       d="M 90.75,437.77788 C 91.619233,437.76272 92.488467,437.75752 93.3577,437.76617 C 94.226933,437.77485 95.096166,437.79733 95.9654,437.82413 C 96.834633,437.85094 97.703866,437.88115 98.573099,437.90014 C 99.44233,437.91913 100.31157,437.92592 101.1808,437.91561 C 102.05003,437.90528 102.91927,437.87789 103.7885,437.84494 C 104.65773,437.81201 105.52697,437.77462 106.3962,437.75089 C 107.26543,437.72718 108.13467,437.71831 109.0039,437.73056 C 109.87313,437.74282 110.74237,437.77621 111.6116,437.81669 C 112.48083,437.85719 113.35006,437.90342 114.2193,437.93305 C 115.08853,437.96268 115.95776,437.97422 116.827,437.95967 C 117.69623,437.94512 118.56546,437.90447 119.4347,437.8547 C 120.30393,437.80494 121.17316,437.74777 122.0424,437.71078 C 122.91163,437.67377 123.78086,437.6588 124.6501,437.67603 C 125.51933,437.69328 126.38856,437.74282 127.2578,437.80394 C 128.12703,437.86507 128.99626,437.93575 129.8655,437.98194 C 130.73473,438.02813 131.60396,438.04751 132.4732,438.0271 C 133.34243,438.00671 134.21166,437.94641 135.0809,437.87133 C 135.95013,437.79622 136.81936,437.70884 137.6886,437.65121 C 138.55783,437.59359 139.42706,437.56856 140.2963,437.59265 C 141.16553,437.61673 142.03476,437.69013 142.904,437.78236 C 143.77323,437.87459 144.64246,437.98259 145.5117,438.05447 C 146.38093,438.12636 147.25016,438.1586 148.1194,438.13021 C 148.98863,438.10183 149.85786,438.01253 150.7271,437.89926 C 151.59633,437.78602 152.46556,437.65255 153.3348,437.56289 C 154.20403,437.47325 155.07326,437.43179 155.9425,437.46518 C 156.81173,437.49857 157.68096,437.6072 158.55019,437.74625 C 159.41943,437.88531 160.28866,438.05023 161.15789,438.16197 C 162.02713,438.27373 162.89636,438.32692 163.76559,438.28776 C 164.63483,438.24859 165.50406,438.11651 166.37329,437.94581 C 167.24253,437.7751 168.11176,437.57138 168.98099,437.43208 C 169.85023,437.29281 170.71946,437.22466 171.58869,437.27047 C 172.45793,437.31629 173.32716,437.47685 174.19639,437.68638 C 175.06563,437.89592 175.93486,438.14756 176.80409,438.32109 C 177.67333,438.49464 178.54256,438.58179 179.41179,438.52834 C 180.28103,438.4749 181.15026,438.27979 182.01949,438.02267 C 182.88873,437.76555 183.75796,437.45475 184.62719,437.23859 C 185.49643,437.02243 186.36566,436.91115 187.23489,436.97327 C 188.10413,437.03541 188.97336,437.27242 189.84259,437.5879 C 190.71183,437.90338 191.58106,438.28715 192.45029,438.55632 C 193.31953,438.82549 194.18876,438.9674 195.05799,438.89543 C 195.92723,438.82348 196.79646,438.53566 197.66569,438.14865 C 198.53493,437.76164 199.40416,437.28785 200.27339,436.95276 C 201.14263,436.61766 202.01186,436.43696 202.88109,436.51997 C 203.75032,436.60296 204.61956,436.95234 205.48879,437.427 C 206.35802,437.90167 207.22726,438.48646 208.09649,438.9035 C 208.96572,439.32052 209.83496,439.55035 210.70419,439.45509 C 211.57342,439.35982 212.44266,438.93591 213.31189,438.35385 C 214.18112,437.7718 215.05036,437.05011 215.91959,436.53128 C 216.78882,436.01244 217.65806,435.7205 218.52729,435.82923 C 219.39652,435.93798 220.26576,436.4521 221.13499,437.16566 C 222.00422,437.87921 222.87346,438.76964 223.74269,439.41492 C 224.61192,440.06023 225.48116,440.43062 226.35039,440.30729 C 227.21962,440.18397 228.08886,439.5607 228.95809,438.68617 C 229.82732,437.81165 230.69656,436.71334 231.56579,435.91111 C 232.43502,435.10886 233.30426,434.63947 234.17349,434.77828 C 235.04272,434.91708 235.91196,435.67224 236.78119,436.7437 C 237.65042,437.81516 238.51966,439.1694 239.38889,440.16634 C 240.25812,441.16328 241.12736,441.7574 241.99659,441.60257 C 242.86582,441.44771 243.73506,440.53332 244.60429,439.22111 C 245.47352,437.90892 246.34276,436.23979 247.21199,435.0016 C 248.08122,433.7634 248.95045,433.01242 249.81969,433.18327 C 250.68892,433.35412 251.55815,434.46056 252.42739,436.06672 C 253.29662,437.67285 254.16585,439.72896 255.03509,441.26567 C 255.90432,442.80239 256.77355,443.75028 257.64279,443.56427 C 258.51202,443.37828 259.38125,442.04056 260.25049,440.07606 C 261.11972,438.11155 261.98895,435.58079 262.85819,433.67537 C 263.72742,431.76996 264.59665,430.57564 265.46589,430.77478 C 266.33512,430.97394 267.20435,432.58949 268.07359,434.98989 C 268.94282,437.39028 269.81205,440.5019 270.68129,442.86129 C 271.55052,445.22071 272.41975,446.72232 273.28899,446.51358 C 274.15822,446.30482 275.02745,444.35646 275.89669,441.42764 C 276.76592,438.49884 277.63515,434.67915 278.50439,431.76306 C 279.37362,428.84696 280.24285,426.96434 281.11209,427.17717 C 281.98132,427.38999 282.85055,429.73537 283.71979,433.30154 C 284.58902,436.8677 285.45825,441.5458 286.32749,445.14021 C 287.19672,448.7346 288.06595,451.0859 288.93519,450.87681 C 289.80442,450.66773 290.67365,447.85163 291.54289,443.52243 C 292.41212,439.19322 293.28135,433.48305 294.15058,429.06997 C 295.01982,424.6569 295.88905,421.73573 296.75828,421.93088 C 297.62752,422.12603 298.49675,425.49526 299.36598,430.7278 C 300.23522,435.96035 301.10445,442.896 301.97368,448.28333 C 302.84292,453.67066 303.71215,457.27291 304.58138,457.10381 C 305.45062,456.9347 306.31985,452.9239 307.18908,446.63972 C 308.05832,440.35553 308.92755,431.99171 309.79678,425.46921 C 310.66602,418.94669 311.53525,414.55089 312.40448,414.68149 C 313.27372,414.81209 314.14295,419.55252 315.01218,427.0306 C 315.88142,434.5087 316.75065,444.49089 317.61988,452.29503 C 318.48912,460.09919 319.35835,465.38531 320.22758,465.30308 C 321.09682,465.22082 321.96605,459.67477 322.83528,450.89157 C 323.70452,442.10834 324.57375,430.36782 325.44298,421.18328 C 326.31222,411.99873 327.18145,405.76819 328.05068,405.79926 C 328.91992,405.83035 329.78915,412.22643 330.65838,422.35703 C 331.52762,432.48764 332.39685,446.02087 333.26608,456.59042 C 334.13532,467.16 335.00455,474.31106 335.87378,474.32274 C 336.74302,474.33441 337.61225,467.10288 338.48148,455.69893 C 339.35071,444.29499 340.21995,429.10544 341.08918,417.29073 C 341.95841,405.47602 342.82765,397.53921 343.69688,397.50519 C 344.56611,397.47119 345.43535,405.43328 346.30458,417.87776 C 347.17381,430.32226 348.04305,446.81018 348.91228,459.55398 C 349.78151,472.29775 350.65075,480.76351 351.51998,480.79389 C 352.38921,480.82425 353.25845,472.34831 354.12768,459.2666 C 354.99691,446.18488 355.86615,428.97722 356.73538,415.78057 C 357.60461,402.58389 358.47385,393.93838 359.34308,393.93039 C 360.21231,393.92238 361.08155,402.59182 361.95078,415.78057 C 362.82001,428.96932 363.68925,446.17683 364.55848,459.2666 C 365.42771,472.35636 366.29695,480.80861 367.16618,480.79389 C 368.03541,480.77917 368.90465,472.29033 369.77388,459.55398 C 370.64311,446.8176 371.51235,430.3301 372.38158,417.87776 C 373.25081,405.42542 374.12005,397.48587 374.98928,397.50519 C 375.85851,397.52453 376.72775,405.48275 377.59698,417.29073 C 378.46621,429.09868 379.33545,444.28767 380.20468,455.69893 C 381.07391,467.11019 381.94314,474.32113 382.81238,474.32274 C 383.68161,474.32435 384.55084,467.15404 385.42008,456.59042 C 386.28931,446.02681 387.15854,432.49418 388.02778,422.35703 C 388.89701,412.21988 389.76624,405.84202 390.63548,405.79926 C 391.50471,405.75652 392.37394,412.00389 393.24318,421.18328 C 394.11241,430.36268 394.98164,442.10268 395.85088,450.89157 C 396.72011,459.68044 397.58934,465.2108 398.45858,465.30308 C 399.32781,465.39533 400.19704,460.09478 401.06628,452.29503 C 401.93551,444.49528 402.80474,434.51351 403.67398,427.0306 C 404.54321,419.54771 405.41244,414.82053 406.28168,414.68149 C 407.15091,414.54244 408.02014,418.95039 408.88938,425.46921 C 409.75861,431.98801 410.62784,440.35154 411.49708,446.63972 C 412.36631,452.92789 413.23554,456.92767 414.10478,457.10381 C 414.97401,457.27995 415.84324,453.66754 416.71248,448.28333 C 417.58171,442.89912 418.45094,435.96359 419.32018,430.7278 C 420.18941,425.492 421.05864,422.13184 421.92788,421.93088 C 422.79711,421.72992 423.66634,424.65951 424.53558,429.06997 C 425.40481,433.48044 426.27404,439.19058 427.14327,443.52243 C 428.01251,447.85427 428.88174,450.66294 429.75097,450.87681 C 430.62021,451.09069 431.48944,448.73242 432.35867,445.14021 C 433.22791,441.54799 434.09714,436.86983 434.96637,433.30154 C 435.83561,429.73324 436.70484,427.3939 437.57407,427.17717 C 438.44331,426.96043 439.31254,428.84877 440.18177,431.76306 C 441.05101,434.67733 441.92024,438.49712 442.78947,441.42764 C 443.65871,444.35815 444.52794,446.30164 445.39717,446.51358 C 446.26641,446.72552 447.13564,445.2192 448.00487,442.86129 C 448.87411,440.5034 449.74334,437.39164 450.61257,434.98989 C 451.48181,432.58813 452.35104,430.97654 453.22027,430.77478 C 454.08951,430.57305 454.95874,431.77122 455.82797,433.67537 C 456.69721,435.57953 457.56644,438.11047 458.43567,440.07606 C 459.30491,442.04164 460.17414,443.37616 461.04337,443.56427 C 461.91261,443.75239 462.78184,442.80137 463.65107,441.26567 C 464.52031,439.72998 465.38954,437.67371 466.25877,436.06672 C 467.12801,434.45971 467.99724,433.35584 468.86647,433.18327 C 469.73571,433.01071 470.60494,433.76426 471.47417,435.0016 C 472.3434,436.23893 473.21264,437.90825 474.08187,439.22111 C 474.9511,440.53399 475.82034,441.44633 476.68957,441.60257 C 477.5588,441.75878 478.42804,441.16257 479.29727,440.16634 C 480.1665,439.17011 481.03574,437.81571 481.90497,436.7437 C 482.7742,435.6717 483.64344,434.91823 484.51267,434.77828 C 485.3819,434.63834 486.25114,435.10945 487.12037,435.91111 C 487.9896,436.71276 488.85884,437.81121 489.72807,438.68617 C 490.5973,439.56114 491.46654,440.18305 492.33577,440.30729 C 493.205,440.43154 494.07424,440.05973 494.94347,439.41492 C 495.8127,438.77012 496.68194,437.87956 497.55117,437.16566 C 498.4204,436.45177 499.28964,435.93871 500.15887,435.82923 C 501.0281,435.71975 501.89734,436.01284 502.76657,436.53128 C 503.6358,437.04971 504.50504,437.77153 505.37427,438.35385 C 506.2435,438.93618 507.11274,439.35922 507.98197,439.45509 C 508.8512,439.55094 509.72044,439.32018 510.58967,438.9035 C 511.4589,438.48679 512.32814,437.90188 513.19737,437.427 C 514.0666,436.95211 514.93584,436.60344 515.80507,436.51997 C 516.6743,436.43648 517.54353,436.61793 518.41277,436.95276 C 519.282,437.28758 520.15123,437.76147 521.02047,438.14865 C 521.8897,438.53583 522.75893,438.82308 523.62817,438.89543 C 524.4974,438.96779 525.36663,438.82528 526.23587,438.55632 C 527.1051,438.28736 527.97433,437.90353 528.84357,437.5879 C 529.7128,437.27229 530.58203,437.03572 531.45127,436.97327 C 532.3205,436.91081 533.18973,437.02261 534.05897,437.23859 C 534.9282,437.45456 535.79743,437.76544 536.66667,438.02267 C 537.5359,438.2799 538.40513,438.47465 539.27437,438.52834 C 540.1436,438.58206 541.01283,438.49449 541.88207,438.32109 C 542.7513,438.14771 543.62053,437.896 544.48977,437.68638 C 545.359,437.47677 546.22823,437.3165 547.09747,437.27047 C 547.9667,437.22445 548.83593,437.29293 549.70517,437.43208 C 550.5744,437.57123 551.44363,437.77504 552.31287,437.94581 C 553.1821,438.11659 554.05133,438.24843 554.92057,438.28776 C 555.7898,438.32711 556.65903,438.27362 557.52827,438.16197 C 558.3975,438.05033 559.26673,437.88536 560.13597,437.74625 C 561.0052,437.60714 561.87443,437.4987 562.74366,437.46518 C 563.6129,437.43166 564.48213,437.47334 565.35136,437.56289 C 566.2206,437.65245 567.08983,437.78597 567.95906,437.89926 C 568.8283,438.01257 569.69753,438.10171 570.56676,438.13021 C 571.436,438.15873 572.30523,438.12627 573.17446,438.05447 C 574.0437,437.98267 574.91293,437.87461 575.78216,437.78236 C 576.6514,437.6901 577.52063,437.61684 578.38986,437.59265 C 579.2591,437.56847 580.12833,437.59365 580.99756,437.65121 C 581.8668,437.70878 582.73603,437.7962 583.60526,437.87133 C 584.4745,437.94643 585.34373,438.00663 586.21296,438.0271 C 587.0822,438.04757 587.95143,438.02806 588.82066,437.98194 C 589.6899,437.93581 590.55913,437.8651 591.42836,437.80394 C 592.2976,437.7428 593.16683,437.69335 594.03606,437.67603 C 594.9053,437.65874 595.77453,437.67382 596.64376,437.71078 C 597.513,437.74773 598.38223,437.80492 599.25146,437.8547 C 600.1207,437.90447 600.98993,437.94507 601.85916,437.95967 C 602.7284,437.97426 603.59763,437.96264 604.46686,437.93305 C 605.3361,437.90344 606.20533,437.85719 607.07456,437.81669 C 607.94379,437.77619 608.81303,437.74286 609.68226,437.73056 C 610.55149,437.71827 611.42073,437.7272 612.28996,437.75089 C 613.15919,437.7746 614.02843,437.81199 614.89766,437.84494 C 615.76689,437.87791 616.63613,437.90526 617.50536,437.91561 C 618.37459,437.92594 619.24383,437.9191 620.11306,437.90014 C 620.98229,437.88117 621.85153,437.85094 622.72076,437.82413 C 623.58999,437.79731 624.45923,437.77487 625.32846,437.76617 C 626.19769,437.7575 627.06693,437.76272 627.93616,437.77788" />
    <path
       title="1/cosh(x/15)"
       style="fill:#000000;fill-opacity:0;stroke:#fd0000;stroke-width:2.20945978;stroke-linecap:butt;stroke-linejoin:miter;stroke-miterlimit:4;stroke-dasharray:none;stroke-dashoffset:48.99999211;stroke-opacity:1"
       d="M 90.770224,436.8915 C 91.639391,436.88985 92.508559,436.88815 93.377726,436.88639 C 94.246893,436.88466 95.116068,436.88283 95.985232,436.88094 C 96.854397,436.87909 97.723561,436.87712 98.592736,436.87511 C 99.4619,436.87309 100.33106,436.87101 101.20024,436.86884 C 102.0694,436.86669 102.93857,436.86445 103.80774,436.86214 C 104.67691,436.85981 105.54607,436.85741 106.41525,436.85493 C 107.28441,436.85244 108.15357,436.84987 109.02275,436.84721 C 109.89191,436.84456 110.76108,436.8418 111.63025,436.83894 C 112.49942,436.83607 113.36858,436.83312 114.23776,436.83006 C 115.10692,436.827 115.97609,436.82384 116.84526,436.82056 C 117.71442,436.81729 118.58359,436.81387 119.45276,436.81037 C 120.32193,436.80685 121.19109,436.80323 122.06027,436.79945 C 122.92943,436.79567 123.7986,436.79177 124.66777,436.78773 C 125.53694,436.7837 126.4061,436.77951 127.27527,436.77517 C 128.14444,436.77085 129.0136,436.76636 129.88278,436.76172 C 130.75194,436.75707 131.62111,436.75225 132.49028,436.74728 C 133.35945,436.74229 134.22861,436.73716 135.09779,436.73181 C 135.96695,436.72648 136.83611,436.72095 137.70529,436.71524 C 138.57445,436.70951 139.44362,436.70359 140.31278,436.69744 C 141.18196,436.69133 142.05112,436.68497 142.92029,436.67839 C 143.78946,436.67182 144.65863,436.665 145.52779,436.65796 C 146.39697,436.6509 147.26613,436.64362 148.13529,436.63606 C 149.00447,436.62851 149.87363,436.62068 150.7428,436.61259 C 151.61197,436.60449 152.48114,436.59609 153.3503,436.58741 C 154.21948,436.57874 155.08864,436.56973 155.95781,436.56042 C 156.82698,436.55111 157.69614,436.54148 158.56531,436.5315 C 159.43448,436.52152 160.30365,436.51119 161.17281,436.50049 C 162.04199,436.48979 162.91115,436.47873 163.78032,436.46724 C 164.64949,436.45579 165.51866,436.44393 166.38782,436.43162 C 167.25699,436.41932 168.12616,436.4066 168.99532,436.39343 C 169.8645,436.38024 170.73366,436.3666 171.60283,436.35246 C 172.472,436.33834 173.34117,436.32372 174.21033,436.30857 C 175.07951,436.29343 175.94867,436.27776 176.81783,436.26151 C 177.68701,436.24528 178.55617,436.22849 179.42534,436.21106 C 180.29451,436.19366 181.16368,436.17564 182.03284,436.15699 C 182.90202,436.13833 183.77118,436.11902 184.64035,436.09901 C 185.50951,436.07902 186.37868,436.05833 187.24785,436.03687 C 188.11701,436.01543 188.98619,435.99325 189.85535,435.97026 C 190.72452,435.94727 191.59369,435.9235 192.46286,435.89884 C 193.33202,435.87422 194.2012,435.84872 195.07036,435.82229 C 195.93952,435.79589 196.8087,435.76855 197.67786,435.74026 C 198.54703,435.71194 199.4162,435.68264 200.28537,435.65229 C 201.15453,435.62194 202.02371,435.59054 202.89287,435.55801 C 203.76204,435.52546 204.63121,435.49181 205.50037,435.45694 C 206.36954,435.42207 207.23871,435.38599 208.10788,435.3486 C 208.97704,435.31123 209.84622,435.27255 210.71538,435.23249 C 211.58455,435.19241 212.45372,435.15098 213.32289,435.10804 C 214.19205,435.0651 215.06122,435.02066 215.93039,434.97464 C 216.79955,434.92859 217.66873,434.88098 218.53789,434.83164 C 219.40706,434.78233 220.27623,434.73127 221.1454,434.67841 C 222.01456,434.62554 222.88374,434.57083 223.7529,434.51418 C 224.62206,434.4575 225.49124,434.39888 226.3604,434.33816 C 227.22957,434.27743 228.09874,434.21461 228.96791,434.14954 C 229.83707,434.08447 230.70624,434.01714 231.57541,433.94743 C 232.44458,433.87768 233.31374,433.80556 234.18291,433.73083 C 235.05208,433.65613 235.92124,433.57884 236.79042,433.49879 C 237.65958,433.41875 238.52875,433.33593 239.39792,433.25017 C 240.26709,433.16443 241.13625,433.0757 242.00543,432.98383 C 242.87459,432.89196 243.74375,432.79695 244.61293,432.69854 C 245.48209,432.60014 246.35126,432.49837 247.22043,432.39299 C 248.0896,432.28762 248.95876,432.17861 249.82794,432.06578 C 250.6971,431.95295 251.56627,431.83623 252.43544,431.71542 C 253.3046,431.59463 254.17377,431.46969 255.04294,431.34037 C 255.91211,431.21105 256.78127,431.07735 257.65045,430.93896 C 258.51961,430.80057 259.38878,430.65747 260.25795,430.50939 C 261.12712,430.36135 261.99628,430.20827 262.86545,430.04989 C 263.73462,429.89154 264.60378,429.72783 265.47296,429.5585 C 266.34212,429.38916 267.21129,429.21417 268.08046,429.03318 C 268.94963,428.8522 269.81879,428.66519 270.68797,428.47184 C 271.55713,428.27848 272.42629,428.07873 273.29547,427.87227 C 274.16463,427.66579 275.0338,427.45257 275.90296,427.23224 C 276.77214,427.0119 277.6413,426.78441 278.51047,426.54945 C 279.37964,426.31448 280.24881,426.07195 281.11797,425.82156 C 281.98714,425.57116 282.85631,425.31283 283.72547,425.04623 C 284.59465,424.77963 285.46381,424.50474 286.33298,424.22119 C 287.20215,423.93764 288.07132,423.64538 288.94048,423.34415 C 289.80966,423.04293 290.67882,422.73266 291.54799,422.41306 C 292.41716,422.09347 293.28632,421.76452 294.15549,421.42599 C 295.02466,421.08744 295.89383,420.73924 296.76299,420.38127 C 297.63217,420.02328 298.50133,419.65545 299.3705,419.27766 C 300.23967,418.89987 301.10884,418.51209 301.978,418.11434 C 302.84717,417.71659 303.71634,417.3088 304.5855,416.89112 C 305.45468,416.47346 306.32384,416.04586 307.19301,415.60861 C 308.06218,415.17138 308.93135,414.72443 309.80051,414.2683 C 310.66969,413.81216 311.53885,413.34677 312.40801,412.87283 C 313.27719,412.39888 314.14635,411.91631 315.01552,411.42611 C 315.88469,410.9359 316.75386,410.43799 317.62302,409.93361 C 318.4922,409.42927 319.36136,408.9184 320.23053,408.40262 C 321.09969,407.88681 321.96886,407.36605 322.83803,406.84222 C 323.70719,406.31836 324.57637,405.79144 325.44553,405.26366 C 326.3147,404.73589 327.18387,404.20729 328.05304,403.68043 C 328.9222,403.15358 329.79138,402.62853 330.66054,402.10823 C 331.5297,401.5879 332.39888,401.07238 333.26804,400.56493 C 334.13721,400.05747 335.00638,399.55813 335.87555,399.07044 C 336.74471,398.58275 337.61389,398.10681 338.48305,397.64633 C 339.35222,397.18586 340.22139,396.74091 341.09055,396.31532 C 341.95972,395.88974 342.82889,395.48361 343.69806,395.10066 C 344.56722,394.71771 345.4364,394.35811 346.30556,394.0253 C 347.17473,393.6925 348.0439,393.38668 348.91307,393.11096 C 349.78223,392.83527 350.6514,392.58984 351.52057,392.37726 C 352.38973,392.16468 353.25891,391.98516 354.12807,391.84058 C 354.99724,391.69601 355.86641,391.58658 356.73558,391.5134 C 357.60474,391.44021 358.47392,391.40349 359.34308,391.40345 C 360.21224,391.40343 361.08142,391.44029 361.95058,391.5134 C 362.81975,391.58652 363.68892,391.69607 364.55809,391.84058 C 365.42725,391.9851 366.29642,392.16476 367.16559,392.37726 C 368.03476,392.58978 368.90392,392.83531 369.77309,393.11096 C 370.64226,393.38662 371.51142,393.69256 372.3806,394.0253 C 373.24976,394.35804 374.11893,394.71776 374.9881,395.10066 C 375.85727,395.48357 376.72643,395.88978 377.59561,396.31532 C 378.46477,396.74087 379.33393,397.18588 380.20311,397.64633 C 381.07227,398.10678 381.94144,398.58277 382.81061,399.07044 C 383.67978,399.55811 384.54894,400.05747 385.41812,400.56493 C 386.28728,401.07238 387.15645,401.58792 388.02562,402.10823 C 388.89478,402.62853 389.76395,403.1536 390.63312,403.68043 C 391.50229,404.20726 392.37145,404.73589 393.24063,405.26366 C 394.10979,405.79144 394.97896,406.31836 395.84813,406.84222 C 396.7173,407.36605 397.58646,407.88681 398.45563,408.40262 C 399.3248,408.91843 400.19396,409.42924 401.06314,409.93361 C 401.9323,410.43799 402.80147,410.93588 403.67064,411.42611 C 404.53981,411.91633 405.40897,412.39885 406.27815,412.87283 C 407.14731,413.34677 408.01647,413.81216 408.88564,414.2683 C 409.75481,414.72445 410.62398,415.17135 411.49314,415.60861 C 412.36232,416.04588 413.23148,416.47346 414.10065,416.89112 C 414.96982,417.30882 415.83899,417.71657 416.70815,418.11434 C 417.57732,418.51211 418.44649,418.89985 419.31565,419.27766 C 420.18483,419.65545 421.05399,420.02328 421.92316,420.38127 C 422.79233,420.73926 423.6615,421.08741 424.53066,421.42599 C 425.39984,421.76454 426.269,422.09345 427.13816,422.41306 C 428.00734,422.73268 428.8765,423.04291 429.74567,423.34415 C 430.61484,423.6454 431.48401,423.93762 432.35317,424.22119 C 433.22235,424.50474 434.09151,424.77963 434.96068,425.04623 C 435.82985,425.31285 436.69902,425.57114 437.56818,425.82156 C 438.43735,426.07197 439.30652,426.31446 440.17568,426.54945 C 441.04486,426.78443 441.91402,427.0119 442.78319,427.23224 C 443.65236,427.45259 444.52153,427.66579 445.39069,427.87227 C 446.25987,428.07875 447.12903,428.27846 447.99819,428.47184 C 448.86737,428.66521 449.73653,428.85218 450.6057,429.03318 C 451.47487,429.21417 452.34404,429.38916 453.2132,429.5585 C 454.08237,429.72785 454.95154,429.89152 455.82071,430.04989 C 456.68987,430.20829 457.55904,430.36133 458.42821,430.50939 C 459.29737,430.65749 460.16655,430.80055 461.03571,430.93896 C 461.90488,431.07735 462.77405,431.21105 463.64322,431.34037 C 464.51238,431.46969 465.38156,431.59461 466.25072,431.71542 C 467.11988,431.83626 467.98906,431.95293 468.85822,432.06578 C 469.72739,432.17863 470.59656,432.2876 471.46573,432.39299 C 472.33489,432.49837 473.20407,432.60014 474.07323,432.69854 C 474.9424,432.79695 475.81157,432.89196 476.68073,432.98383 C 477.5499,433.0757 478.41907,433.1644 479.28824,433.25017 C 480.1574,433.33593 481.02658,433.41873 481.89574,433.49879 C 482.76491,433.57884 483.63408,433.65613 484.50325,433.73083 C 485.37241,433.80556 486.24158,433.87768 487.11075,433.94743 C 487.97991,434.01716 488.84909,434.08447 489.71825,434.14954 C 490.58742,434.21461 491.45659,434.27743 492.32576,434.33816 C 493.19492,434.3989 494.0641,434.4575 494.93326,434.51418 C 495.80242,434.57083 496.6716,434.62554 497.54076,434.67841 C 498.40993,434.73127 499.27909,434.78233 500.14827,434.83164 C 501.01743,434.88098 501.8866,434.92859 502.75577,434.97464 C 503.62494,435.02066 504.4941,435.0651 505.36327,435.10804 C 506.23244,435.15098 507.1016,435.19241 507.97078,435.23249 C 508.83994,435.27255 509.70911,435.31123 510.57828,435.3486 C 511.44745,435.38599 512.31661,435.42207 513.18579,435.45694 C 514.05495,435.49181 514.92411,435.52546 515.79329,435.55801 C 516.66245,435.59054 517.53162,435.62194 518.40079,435.65229 C 519.26996,435.68264 520.13912,435.71194 521.0083,435.74026 C 521.87746,435.76857 522.74663,435.79589 523.6158,435.82229 C 524.48496,435.84872 525.35413,435.87422 526.2233,435.89884 C 527.09247,435.9235 527.96163,435.94727 528.83081,435.97026 C 529.69997,435.99325 530.56914,436.01543 531.43831,436.03687 C 532.30748,436.05833 533.17664,436.079 534.04581,436.09901 C 534.91498,436.11902 535.78414,436.13833 536.65332,436.15699 C 537.52248,436.17564 538.39165,436.19366 539.26082,436.21106 C 540.12999,436.22849 540.99915,436.24528 541.86833,436.26151 C 542.73749,436.27776 543.60665,436.29343 544.47582,436.30857 C 545.34499,436.32372 546.21416,436.33834 547.08332,436.35246 C 547.9525,436.36662 548.82166,436.38024 549.69083,436.39343 C 550.56,436.4066 551.42917,436.41932 552.29833,436.43162 C 553.1675,436.44393 554.03667,436.45579 554.90583,436.46724 C 555.77501,436.47873 556.64417,436.48979 557.51334,436.50049 C 558.38251,436.51119 559.25168,436.52152 560.12084,436.5315 C 560.99002,436.54148 561.85918,436.55111 562.72834,436.56042 C 563.59752,436.56973 564.46668,436.57874 565.33585,436.58741 C 566.20502,436.59609 567.07419,436.60449 567.94335,436.61259 C 568.81253,436.62068 569.68169,436.62851 570.55086,436.63606 C 571.42003,436.64362 572.28919,436.6509 573.15836,436.65796 C 574.02753,436.665 574.8967,436.67182 575.76586,436.67839 C 576.63504,436.68497 577.5042,436.69133 578.37337,436.69744 C 579.24254,436.70359 580.11171,436.70951 580.98087,436.71524 C 581.85005,436.72095 582.71921,436.72648 583.58837,436.73181 C 584.45755,436.73716 585.32671,436.74229 586.19588,436.74728 C 587.06505,436.75225 587.93422,436.75707 588.80338,436.76172 C 589.67255,436.76636 590.54172,436.77085 591.41089,436.77517 C 592.28005,436.77951 593.14922,436.7837 594.01839,436.78773 C 594.88755,436.79177 595.75673,436.79567 596.62589,436.79945 C 597.49506,436.80323 598.36423,436.80685 599.2334,436.81037 C 600.10256,436.81387 600.97174,436.81729 601.8409,436.82056 C 602.71006,436.82384 603.57924,436.827 604.4484,436.83006 C 605.31757,436.83312 606.18674,436.83607 607.05591,436.83894 C 607.92507,436.8418 608.79425,436.84456 609.66341,436.84721 C 610.53258,436.84987 611.40175,436.85244 612.27091,436.85493 C 613.14008,436.85741 614.00925,436.85981 614.87842,436.86214 C 615.74758,436.86445 616.61676,436.86669 617.48592,436.86884 C 618.35509,436.87101 619.22426,436.87309 620.09343,436.87511 C 620.96259,436.87712 621.83176,436.87909 622.70093,436.88094 C 623.57009,436.88283 624.43927,436.88466 625.30843,436.88639 C 626.1776,436.88815 627.04677,436.88985 627.91594,436.8915"
       id="path4220" />
    <path
       id="path5204"
       title="-1/cosh(x/15)"
       d="M 90.755812,439.02874 C 91.625027,439.03033 92.494242,439.03198 93.363456,439.03369 C 94.23267,439.03539 95.101884,439.03717 95.9711,439.03899 C 96.840314,439.04083 97.709528,439.04273 98.578742,439.04469 C 99.447957,439.04666 100.31718,439.0487 101.18639,439.05079 C 102.0556,439.0529 102.92482,439.05507 103.79403,439.05734 C 104.66324,439.0596 105.53246,439.06193 106.40167,439.06435 C 107.27089,439.06676 108.14011,439.06927 109.00932,439.07185 C 109.87853,439.07445 110.74775,439.07714 111.61696,439.07993 C 112.48617,439.0827 113.35538,439.08557 114.2246,439.08855 C 115.09382,439.09153 115.96303,439.09461 116.83225,439.09783 C 117.70146,439.10102 118.57067,439.10432 119.43989,439.10774 C 120.3091,439.11116 121.17831,439.11472 122.04754,439.1184 C 122.91675,439.12207 123.78596,439.12586 124.65518,439.12981 C 125.52439,439.13374 126.3936,439.13781 127.26282,439.14202 C 128.13203,439.14624 129.00124,439.15062 129.87047,439.15515 C 130.73968,439.15967 131.60889,439.16434 132.47811,439.1692 C 133.34732,439.17404 134.21653,439.17907 135.08575,439.18427 C 135.95496,439.18946 136.82418,439.19483 137.6934,439.20041 C 138.56261,439.20599 139.43182,439.21176 140.30104,439.21773 C 141.17025,439.22371 142.03946,439.2299 142.90868,439.2363 C 143.77789,439.2427 144.64711,439.24932 145.51633,439.25619 C 146.38554,439.26306 147.25475,439.27016 148.12397,439.27753 C 148.99318,439.28489 149.86239,439.2925 150.73161,439.30041 C 151.60083,439.30829 152.47004,439.31647 153.33926,439.32492 C 154.20847,439.33338 155.07768,439.34212 155.9469,439.35119 C 156.81611,439.36025 157.68532,439.36964 158.55454,439.37936 C 159.42376,439.38908 160.29297,439.39915 161.16218,439.40956 C 162.0314,439.41998 162.90061,439.43079 163.76982,439.44195 C 164.63904,439.45312 165.50825,439.46469 166.37747,439.47666 C 167.24669,439.48863 168.1159,439.50103 168.98511,439.51386 C 169.85433,439.52671 170.72354,439.53999 171.59275,439.55375 C 172.46197,439.56752 173.33119,439.58174 174.2004,439.59652 C 175.06962,439.61127 175.93883,439.62653 176.80804,439.64234 C 177.67726,439.65817 178.54647,439.67453 179.41568,439.69147 C 180.2849,439.70842 181.15412,439.72599 182.02333,439.74417 C 182.89255,439.76234 183.76176,439.78113 184.63097,439.80062 C 185.50019,439.8201 186.3694,439.84027 187.23861,439.86115 C 188.10784,439.88202 188.97705,439.90364 189.84626,439.92603 C 190.71548,439.94843 191.58469,439.9716 192.4539,439.99558 C 193.32312,440.01959 194.19233,440.04442 195.06155,440.07015 C 195.93077,440.09589 196.79998,440.1225 197.66919,440.15008 C 198.53841,440.17765 199.40762,440.20619 200.27683,440.23575 C 201.14605,440.26531 202.01526,440.2959 202.88448,440.32759 C 203.75369,440.35927 204.62291,440.39207 205.49212,440.42603 C 206.36133,440.45999 207.23055,440.49515 208.09976,440.53153 C 208.96897,440.56795 209.8382,440.60563 210.70741,440.64465 C 211.57662,440.68367 212.44584,440.72406 213.31505,440.76587 C 214.18426,440.8077 215.05348,440.85099 215.92269,440.89582 C 216.7919,440.94063 217.66113,440.98703 218.53034,441.03509 C 219.39955,441.08313 220.26877,441.13283 221.13798,441.18434 C 222.00719,441.23585 222.87641,441.28913 223.74562,441.3443 C 224.61484,441.39949 225.48406,441.4566 226.35327,441.51575 C 227.22248,441.57489 228.0917,441.63609 228.96091,441.69948 C 229.83012,441.76285 230.69934,441.82841 231.56856,441.89635 C 232.43777,441.96425 233.30699,442.03452 234.1762,442.10728 C 235.04541,442.18008 235.91463,442.25536 236.78384,442.33332 C 237.65305,442.41129 238.52227,442.49196 239.39149,442.57548 C 240.2607,442.659 241.12992,442.74542 241.99913,442.83491 C 242.86834,442.92437 243.73756,443.01695 244.60677,443.11279 C 245.47598,443.20861 246.34521,443.30775 247.21442,443.41039 C 248.08363,443.51303 248.95284,443.61919 249.82206,443.72911 C 250.69127,443.83902 251.56048,443.9527 252.4297,444.07035 C 253.29891,444.18803 254.16813,444.30972 255.03735,444.43566 C 255.90656,444.56162 256.77577,444.69188 257.64499,444.82668 C 258.5142,444.96148 259.38341,445.10083 260.25263,445.24506 C 261.12185,445.38927 261.99106,445.53838 262.86028,445.69263 C 263.72949,445.84689 264.5987,446.00635 265.46792,446.17128 C 266.33713,446.33621 267.20634,446.50666 268.07557,446.68295 C 268.94478,446.85924 269.81399,447.04139 270.68321,447.22972 C 271.55242,447.41805 272.42163,447.61261 273.29085,447.81372 C 274.16006,448.01481 275.02927,448.2225 275.8985,448.43712 C 276.76771,448.65171 277.63692,448.8733 278.50614,449.10218 C 279.37535,449.33105 280.24456,449.56727 281.11378,449.81116 C 281.98299,450.05506 282.85221,450.30666 283.72143,450.56634 C 284.59064,450.826 285.45985,451.09377 286.32907,451.36997 C 287.19828,451.64615 288.06749,451.93079 288.93671,452.2242 C 289.80592,452.51761 290.67514,452.81983 291.54436,453.13113 C 292.41357,453.4424 293.28278,453.76282 294.15199,454.09257 C 295.02121,454.42231 295.89042,454.76145 296.75963,455.11015 C 297.62886,455.45883 298.49807,455.81712 299.36728,456.1851 C 300.2365,456.55307 301.10571,456.93077 301.97492,457.3182 C 302.84414,457.70562 303.71335,458.1028 304.58257,458.50963 C 305.45179,458.91644 306.321,459.33295 307.19021,459.75883 C 308.05943,460.18472 308.92864,460.62005 309.79785,461.06434 C 310.66707,461.50862 311.53628,461.96194 312.4055,462.42358 C 313.27472,462.88523 314.14393,463.35526 315.01314,463.83274 C 315.88236,464.3102 316.75157,464.79518 317.62078,465.28644 C 318.49,465.77771 319.35922,466.2753 320.22843,466.77769 C 321.09765,467.28008 321.96686,467.78733 322.83607,468.29756 C 323.70529,468.80779 324.5745,469.32104 325.44371,469.8351 C 326.31293,470.34918 327.18215,470.86406 328.05136,471.37723 C 328.92058,471.89038 329.78979,472.40182 330.659,472.9086 C 331.52822,473.41539 332.39743,473.91753 333.26664,474.41182 C 334.13587,474.90609 335.00508,475.39246 335.87429,475.86749 C 336.74351,476.34249 337.61272,476.80608 338.48193,477.25461 C 339.35114,477.70313 340.22036,478.13649 341.08958,478.55105 C 341.95879,478.96558 342.82801,479.36116 343.69722,479.73416 C 344.56643,480.10715 345.43565,480.45743 346.30486,480.78159 C 347.17407,481.10576 348.04329,481.4036 348.91251,481.67216 C 349.78172,481.94071 350.65094,482.17977 351.52015,482.38683 C 352.38936,482.59388 353.25858,482.76873 354.12779,482.90955 C 354.997,483.05039 355.86623,483.15697 356.73544,483.22824 C 357.60465,483.29952 358.47387,483.3353 359.34308,483.33532 C 360.21229,483.33537 361.08151,483.29946 361.95072,483.22824 C 362.81993,483.15703 363.68916,483.05031 364.55837,482.90955 C 365.42758,482.7688 366.2968,482.59382 367.16601,482.38683 C 368.03522,482.17983 368.90444,481.94065 369.77365,481.67216 C 370.64287,481.40367 371.51209,481.10569 372.3813,480.78159 C 373.25051,480.45749 374.11973,480.10711 374.98894,479.73416 C 375.85815,479.3612 376.72737,478.96554 377.59658,478.55105 C 378.4658,478.13653 379.33502,477.70311 380.20423,477.25461 C 381.07344,476.80612 381.94265,476.34247 382.81187,475.86749 C 383.68108,475.39248 384.55029,474.90607 385.41952,474.41182 C 386.28873,473.91755 387.15794,473.41539 388.02716,472.9086 C 388.89637,472.40182 389.76558,471.89038 390.6348,471.37723 C 391.50401,470.86406 392.37323,470.34918 393.24245,469.8351 C 394.11166,469.32104 394.98087,468.80782 395.85009,468.29756 C 396.7193,467.78733 397.58851,467.2801 398.45773,466.77769 C 399.32694,466.27528 400.19616,465.77771 401.06538,465.28644 C 401.93459,464.79516 402.8038,464.31022 403.67302,463.83274 C 404.54223,463.35524 405.41144,462.88525 406.28066,462.42358 C 407.14988,461.96192 408.01909,461.50864 408.88831,461.06434 C 409.75752,460.62003 410.62673,460.18474 411.49595,459.75883 C 412.36516,459.33293 413.23437,458.91647 414.10359,458.50963 C 414.97281,458.10278 415.84202,457.70565 416.71124,457.3182 C 417.58045,456.93077 418.44966,456.55309 419.31888,456.1851 C 420.18809,455.8171 421.0573,455.45885 421.92653,455.11015 C 422.79574,454.76143 423.66495,454.42233 424.53417,454.09257 C 425.40338,453.7628 426.27259,453.44242 427.1418,453.13113 C 428.01102,452.81981 428.88024,452.51764 429.74945,452.2242 C 430.61867,451.93079 431.48788,451.64617 432.35709,451.36997 C 433.22631,451.09375 434.09552,450.82602 434.96473,450.56634 C 435.83395,450.30664 436.70317,450.05506 437.57238,449.81116 C 438.4416,449.56725 439.31081,449.33107 440.18002,449.10218 C 441.04924,448.8733 441.91845,448.65174 442.78766,448.43712 C 443.65689,448.2225 444.5261,448.01483 445.39531,447.81372 C 446.26453,447.61259 447.13374,447.41807 448.00295,447.22972 C 448.87217,447.04137 449.74138,446.85926 450.61059,446.68295 C 451.47982,446.50664 452.34903,446.33621 453.21824,446.17128 C 454.08746,446.00633 454.95667,445.84691 455.82588,445.69263 C 456.6951,445.53836 457.56431,445.3893 458.43353,445.24506 C 459.30275,445.10083 460.17196,444.96148 461.04117,444.82668 C 461.91039,444.69188 462.7796,444.56164 463.64881,444.43566 C 464.51803,444.3097 465.38725,444.18803 466.25646,444.07035 C 467.12568,443.95268 467.99489,443.83902 468.8641,443.72911 C 469.73332,443.61919 470.60253,443.51303 471.47174,443.41039 C 472.34095,443.30775 473.21018,443.20863 474.07939,443.11279 C 474.9486,443.01692 475.81782,442.92437 476.68703,442.83491 C 477.55624,442.74542 478.42546,442.659 479.29467,442.57548 C 480.16389,442.49194 481.03311,442.41129 481.90232,442.33332 C 482.77153,442.25536 483.64075,442.18008 484.50996,442.10728 C 485.37917,442.03452 486.24839,441.96427 487.1176,441.89635 C 487.98682,441.82841 488.85604,441.76285 489.72525,441.69948 C 490.59446,441.63609 491.46368,441.57489 492.33289,441.51575 C 493.2021,441.4566 494.07132,441.39951 494.94054,441.3443 C 495.80975,441.28913 496.67897,441.23585 497.54818,441.18434 C 498.41739,441.13283 499.28661,441.08313 500.15582,441.03509 C 501.02503,440.98703 501.89426,440.94063 502.76347,440.89582 C 503.63268,440.85099 504.5019,440.8077 505.37111,440.76587 C 506.24032,440.72406 507.10954,440.68367 507.97875,440.64465 C 508.84796,440.60561 509.71719,440.56795 510.5864,440.53153 C 511.45561,440.49515 512.32483,440.45999 513.19404,440.42603 C 514.06325,440.39207 514.93247,440.35927 515.80168,440.32759 C 516.6709,440.2959 517.54011,440.26533 518.40933,440.23575 C 519.27854,440.20619 520.14775,440.17765 521.01697,440.15008 C 521.88618,440.1225 522.75539,440.09589 523.62461,440.07015 C 524.49383,440.04442 525.36304,440.01959 526.23226,439.99558 C 527.10147,439.9716 527.97068,439.94843 528.8399,439.92603 C 529.70911,439.90364 530.57832,439.88204 531.44755,439.86115 C 532.31676,439.84027 533.18597,439.8201 534.05519,439.80062 C 534.9244,439.78113 535.79361,439.76234 536.66283,439.74417 C 537.53204,439.72599 538.40126,439.70844 539.27048,439.69147 C 540.13969,439.67453 541.0089,439.65817 541.87812,439.64234 C 542.74733,439.62653 543.61654,439.61127 544.48576,439.59652 C 545.35497,439.58174 546.22419,439.56752 547.09341,439.55375 C 547.96262,439.53999 548.83183,439.52671 549.70105,439.51386 C 550.57026,439.50103 551.43947,439.48863 552.30869,439.47666 C 553.17791,439.46469 554.04712,439.45312 554.91634,439.44195 C 555.78555,439.43079 556.65476,439.42 557.52398,439.40956 C 558.39319,439.39915 559.2624,439.38908 560.13162,439.37936 C 561.00084,439.36964 561.87005,439.36025 562.73926,439.35119 C 563.60848,439.34212 564.47769,439.33338 565.3469,439.32492 C 566.21612,439.31645 567.08533,439.30829 567.95455,439.30041 C 568.82377,439.2925 569.69298,439.28489 570.56219,439.27753 C 571.43141,439.27016 572.30062,439.26306 573.16983,439.25619 C 574.03905,439.24932 574.90827,439.2427 575.77748,439.2363 C 576.6467,439.2299 577.51591,439.22371 578.38512,439.21773 C 579.25434,439.21176 580.12355,439.20599 580.99276,439.20041 C 581.86198,439.19483 582.7312,439.18946 583.60041,439.18427 C 584.46963,439.17907 585.33884,439.17404 586.20805,439.1692 C 587.07727,439.16434 587.94648,439.15967 588.81569,439.15515 C 589.68492,439.15062 590.55413,439.14624 591.42334,439.14202 C 592.29256,439.13781 593.16177,439.13374 594.03098,439.12981 C 594.9002,439.12586 595.76941,439.12207 596.63862,439.1184 C 597.50785,439.11472 598.37706,439.11116 599.24627,439.10774 C 600.11549,439.10432 600.9847,439.10102 601.85391,439.09783 C 602.72313,439.09461 603.59234,439.09153 604.46156,439.08855 C 605.33078,439.08557 606.19999,439.0827 607.0692,439.07993 C 607.93841,439.07714 608.80763,439.07445 609.67684,439.07185 C 610.54605,439.06927 611.41527,439.06676 612.28449,439.06435 C 613.1537,439.06193 614.02292,439.0596 614.89213,439.05734 C 615.76134,439.05507 616.63056,439.0529 617.49977,439.05079 C 618.36898,439.0487 619.23821,439.04666 620.10742,439.04469 C 620.97663,439.04273 621.84585,439.04083 622.71506,439.03899 C 623.58427,439.03717 624.45349,439.03539 625.3227,439.03369 C 626.19192,439.03198 627.06114,439.03033 627.93035,439.02874"
       style="fill:#000000;fill-opacity:0;stroke:#fc0000;stroke-width:2.18063712;stroke-linecap:butt;stroke-linejoin:miter;stroke-miterlimit:4;stroke-dasharray:none;stroke-dashoffset:48.99999211;stroke-opacity:1" />
  </g>
</svg>
